<?xml version="1.0" standalone="no"?><!DOCTYPE svg PUBLIC "-//W3C//DTD SVG 1.1//EN" "http://www.w3.org/Graphics/SVG/1.1/DTD/svg11.dtd"><svg t="1580327746802" class="icon" viewBox="0 0 1024 1024" version="1.1" xmlns="http://www.w3.org/2000/svg" p-id="8872" xmlns:xlink="http://www.w3.org/1999/xlink" width="16" height="16"><defs><style type="text/css">@font-face { font-weight: 400; font-style: normal; font-family: Inter-Loom; src: url("https://cdn.loom.com/assets/fonts/inter/Inter-UI-Regular.woff2") format("woff2"); }
@font-face { font-weight: 400; font-style: italic; font-family: Inter-Loom; src: url("https://cdn.loom.com/assets/fonts/inter/Inter-UI-Italic.woff2") format("woff2"); }
@font-face { font-weight: 500; font-style: normal; font-family: Inter-Loom; src: url("https://cdn.loom.com/assets/fonts/inter/Inter-UI-Medium.woff2") format("woff2"); }
@font-face { font-weight: 500; font-style: italic; font-family: Inter-Loom; src: url("https://cdn.loom.com/assets/fonts/inter/Inter-UI-MediumItalic.woff2") format("woff2"); }
@font-face { font-weight: 700; font-style: normal; font-family: Inter-Loom; src: url("https://cdn.loom.com/assets/fonts/inter/Inter-UI-Bold.woff2") format("woff2"); }
@font-face { font-weight: 700; font-style: italic; font-family: Inter-Loom; src: url("https://cdn.loom.com/assets/fonts/inter/Inter-UI-BoldItalic.woff2") format("woff2"); }
@font-face { font-weight: 900; font-style: normal; font-family: Inter-Loom; src: url("https://cdn.loom.com/assets/fonts/inter/Inter-UI-Black.woff2") format("woff2"); }
@font-face { font-weight: 900; font-style: italic; font-family: Inter-Loom; src: url("https://cdn.loom.com/assets/fonts/inter/Inter-UI-BlackItalic.woff2") format("woff2"); }
</style></defs><path d="M359.424 175.104q-8.192 19.456-21.504 44.032-11.264 20.48-29.184 48.128t-43.52 60.416l0 526.336-138.24 0 0-379.904q-8.192 7.168-15.872 13.824t-15.872 13.824q-1.024 1.024-11.776-8.192t-24.064-20.48l-34.816-28.672q52.224-58.368 88.576-115.712t59.904-103.424q26.624-53.248 44.032-102.4zM784.384 566.272q24.576 36.864 60.928 68.096t70.144 53.76q39.936 26.624 80.896 47.104l-81.92 98.304q-41.984-31.744-73.216-64t-54.272-62.464-38.4-57.856-25.6-49.152l0 252.928-144.384 0 0-251.904q-8.192 21.504-22.528 48.64t-38.4 58.368-58.88 65.536-82.944 71.168l-54.272-53.248q34.816-28.672 58.368-60.416t38.912-61.952 23.04-57.344 11.776-45.568l-132.096 0 0-65.536 257.024 0 0-88.064-72.704 0 0 13.312-137.216 0 0-274.432 137.216 0 0 17.408q138.24-17.408 221.184-23.04t126.976 3.072 57.856 32.256 13.824 63.488l0 68.608q0 46.08-18.432 72.704t-74.752 26.624l-109.568 0 0 88.064 249.856 0 0 65.536-188.416 0zM505.856 349.184l217.088 0q26.624 0 39.424-7.68t18.944-16.896q6.144-11.264 7.168-25.6l0-40.96q0-22.528-11.264-36.864t-54.272-14.336q-38.912 0-77.824 3.584t-69.632 7.68q-35.84 4.096-69.632 10.24l0 120.832z" p-id="8873" fill="#FF4400"></path></svg>