<?xml version="1.0" standalone="no"?><!DOCTYPE svg PUBLIC "-//W3C//DTD SVG 1.1//EN" "http://www.w3.org/Graphics/SVG/1.1/DTD/svg11.dtd"><svg t="1580327680900" class="icon" viewBox="0 0 1024 1024" version="1.1" xmlns="http://www.w3.org/2000/svg" p-id="6798" xmlns:xlink="http://www.w3.org/1999/xlink" width="16" height="16"><defs><style type="text/css">@font-face { font-weight: 400; font-style: normal; font-family: Inter-Loom; src: url("https://cdn.loom.com/assets/fonts/inter/Inter-UI-Regular.woff2") format("woff2"); }
@font-face { font-weight: 400; font-style: italic; font-family: Inter-Loom; src: url("https://cdn.loom.com/assets/fonts/inter/Inter-UI-Italic.woff2") format("woff2"); }
@font-face { font-weight: 500; font-style: normal; font-family: Inter-Loom; src: url("https://cdn.loom.com/assets/fonts/inter/Inter-UI-Medium.woff2") format("woff2"); }
@font-face { font-weight: 500; font-style: italic; font-family: Inter-Loom; src: url("https://cdn.loom.com/assets/fonts/inter/Inter-UI-MediumItalic.woff2") format("woff2"); }
@font-face { font-weight: 700; font-style: normal; font-family: Inter-Loom; src: url("https://cdn.loom.com/assets/fonts/inter/Inter-UI-Bold.woff2") format("woff2"); }
@font-face { font-weight: 700; font-style: italic; font-family: Inter-Loom; src: url("https://cdn.loom.com/assets/fonts/inter/Inter-UI-BoldItalic.woff2") format("woff2"); }
@font-face { font-weight: 900; font-style: normal; font-family: Inter-Loom; src: url("https://cdn.loom.com/assets/fonts/inter/Inter-UI-Black.woff2") format("woff2"); }
@font-face { font-weight: 900; font-style: italic; font-family: Inter-Loom; src: url("https://cdn.loom.com/assets/fonts/inter/Inter-UI-BlackItalic.woff2") format("woff2"); }
</style></defs><path d="M137.804958 383.777683c-33.427259 9.149147-58.090699 40.169306-58.283364 76.966986v179.177814c0 44.022592 35.160033 79.763027 78.608245 79.763026 43.443395 0 78.610653-35.742843 78.610653-79.763026v-179.177814c0.093924-31.016547-17.728729-59.243073-45.56511-72.343042 46.621152-131.689672 170.601843-225.802578 316.349989-225.802578 147.001669 0 271.846941 95.754165 317.513201 229.075463-24.369628 14.257159-39.401057 40.555838-39.401057 69.068953V639.922483c0 29.958097 16.569131 57.413966 42.966551 71.091928-18.015318 73.406308-106.350702 132.555457-217.521625 143.148382-10.405077-18.49457-39.882717-31.784795-74.56109-31.784795-43.445803 0-78.605837 20.806542-78.605837 46.528432s35.160033 46.529636 78.605837 46.529636c33.906511 0 62.806159-12.717049 73.789228-30.533681 132.172537-10.790406 238.137911-79.47403 262.025878-165.599796 39.591313-4.044746 70.516344-37.953666 70.516344-79.281366v-179.177813c0-39.690053-28.615467-72.634447-65.988733-78.80091C826.387222 223.959021 680.155006 109.710286 507.625316 109.710286c-173.206424 0-319.82156 115.119337-369.820358 274.067397z" p-id="6799" fill="#FF4400"></path><path d="M278.246407 580.106233c54.669704-48.958411 87.0349-86.766375 87.0349-117.773287 0-20.398334-11.151651-32.637335-30.190498-32.637335-14.687042 0-26.927246 9.518821-36.990345 20.671677l-21.759026-21.759027c18.495774-19.583124 36.447272-30.462637 63.917591-30.462636 38.080102 0 63.373314 24.479205 63.373314 62.013826 0 36.446068-30.190498 75.612315-66.908704 111.516515 10.063098-1.088553 23.390652-2.178311 32.638539-2.178311h43.790191v33.727092H278.246407v-23.118514zM579.336178 551.003084h-23.934928v52.220459h-37.262483v-52.220459h-85.677821v-27.200588l75.070446-121.849343h47.869858v118.586091h23.934928v30.46384z m-61.198615-30.46384V479.469232c0-11.697132 1.086145-29.919564 1.631626-41.615492h-1.088554c-4.893674 10.608579-10.335236 21.759026-16.047733 32.638539l-31.279052 50.046965h46.783713z" p-id="6800" fill="#FF4400"></path><path d="M660.343094 446.659704h25.741157v35.439396l-1.05845 18.513837c7.935361-7.405535 17.634806-14.458253 31.032201-14.458253 21.336369 0 30.503578 14.809865 30.503577 39.671991v61.534574h-25.916963v-58.360429c0-15.163886-4.233798-20.629532-13.927221-20.629532-8.111168 0-13.223997 3.878574-20.630736 11.108302v67.881659h-25.743565V446.659704z" p-id="6801" fill="#FF4400"></path></svg>