<svg width="18" height="11" viewBox="0 0 18 11" fill="none" xmlns="http://www.w3.org/2000/svg">
<path fill-rule="evenodd" clip-rule="evenodd" d="M9 1.54351C5.00849 1.54351 2.60448 3.92823 1.63593 5.14837C1.51244 5.30349 1.51244 5.50106 1.63593 5.65618C2.60448 6.87633 5.00849 9.26105 9 9.26105C12.9915 9.26105 15.3963 6.87633 16.3641 5.65618C16.4876 5.50106 16.4876 5.30349 16.3641 5.14837C15.3963 3.92823 12.9915 1.54351 9 1.54351ZM0.426587 4.18908C1.53097 2.79838 4.33166 0 9 0C13.6683 0 16.4698 2.79838 17.5734 4.18908C18.1422 4.90604 18.1422 5.89851 17.5734 6.61547C16.4698 8.00617 13.6683 10.8046 9 10.8046C4.33166 10.8046 1.53097 8.00617 0.426587 6.61547C-0.142196 5.89851 -0.142196 4.90604 0.426587 4.18908ZM9 3.85877C8.14798 3.85877 7.45649 4.55026 7.45649 5.40228C7.45649 6.25429 8.14798 6.94578 9 6.94578C9.85202 6.94578 10.5435 6.25429 10.5435 5.40228C10.5435 4.55026 9.85202 3.85877 9 3.85877ZM5.91298 5.40228C5.91298 3.69747 7.2952 2.31526 9 2.31526C10.7048 2.31526 12.087 3.69747 12.087 5.40228C12.087 7.10708 10.7048 8.48929 9 8.48929C7.2952 8.48929 5.91298 7.10708 5.91298 5.40228Z" fill="black"/>
</svg>
