<svg width="36" height="32" viewBox="0 0 36 32" fill="none" xmlns="http://www.w3.org/2000/svg">
<path fill-rule="evenodd" clip-rule="evenodd" d="M31.2811 11.9266C30.183 11.2777 29.0163 10.8909 27.8308 10.685C28.2052 9.58065 28.4547 8.41392 28.4547 7.17857C28.4547 4.62051 27.55 2.13732 25.8967 0.17822C25.7407 -0.00895548 25.4849 -0.0526296 25.2728 0.0659145C25.0669 0.184459 24.9733 0.440265 25.0481 0.671114C25.3289 1.53212 25.4599 2.31202 25.4599 3.07319C25.4599 7.30335 22.1033 10.7411 17.9729 10.7411C13.8426 10.7411 10.4859 7.30335 10.4859 3.07319C10.4859 2.31825 10.6232 1.53212 10.8977 0.671114C10.9726 0.440265 10.879 0.184459 10.6731 0.0659145C10.461 -0.0526296 10.2052 -0.00895548 10.0492 0.17822C8.40204 2.13732 7.49112 4.62051 7.49112 7.17857C7.49112 8.41392 7.73445 9.58065 8.11504 10.685C6.93584 10.8909 5.76287 11.2777 4.66478 11.9266C2.50603 13.2056 0.858886 15.2521 0.0290769 17.6916C-0.0520323 17.9224 0.0415552 18.172 0.247448 18.303C0.45334 18.4278 0.715385 18.3841 0.871365 18.2032C1.45785 17.5293 2.05681 17.0115 2.6932 16.6371C6.26825 14.5221 10.854 15.7824 12.9192 19.4448C14.9844 23.1072 13.7552 27.8053 10.1802 29.9203C9.54381 30.3009 8.80759 30.5692 7.94658 30.7564C7.71573 30.8063 7.54727 31.0184 7.54727 31.2618C7.55351 31.5113 7.71573 31.7172 7.95282 31.7609C10.4298 32.2475 12.9816 31.8108 15.1403 30.5318C16.2634 29.8704 17.193 29.0032 17.9667 28.0299C18.7403 29.0032 19.67 29.8704 20.793 30.5318C22.9518 31.8108 25.5036 32.2475 27.9806 31.7609C28.2176 31.7172 28.3799 31.5113 28.3861 31.2618C28.3861 31.0184 28.2239 30.8063 27.9868 30.7564C27.1195 30.5754 26.3896 30.3009 25.7532 29.9203C22.1781 27.8053 20.949 23.1072 23.0142 19.4448C25.0793 15.7824 29.6651 14.5221 33.2402 16.6371C33.8766 17.0177 34.4755 17.5293 35.062 18.2032C35.218 18.3841 35.48 18.4278 35.6859 18.303C35.8918 18.1782 35.9854 17.9224 35.9043 17.6916C35.087 15.2521 33.4398 13.1994 31.2811 11.9266ZM17.9667 6.99139C19.1272 6.99139 20.2253 7.22848 21.261 7.59035C22.0908 6.94772 22.7334 6.07423 23.1015 5.05101C21.5293 4.37094 19.7948 3.99035 17.9729 3.99035C16.1573 3.99035 14.4228 4.3647 12.8506 5.04477C13.2187 6.06799 13.8613 6.94148 14.6911 7.58411C15.7206 7.22848 16.8124 6.99139 17.9667 6.99139ZM10.2114 27.3748C10.9601 26.6385 11.4842 25.7276 11.74 24.7293C9.68731 23.0822 8.32093 20.6552 8.06513 17.8912C7.5348 17.7165 6.99199 17.6042 6.41798 17.6042C5.94381 17.6042 5.46963 17.6666 5.01417 17.7976C5.26998 21.7158 7.24779 25.1598 10.2114 27.3748ZM25.7282 27.3685C24.9795 26.6323 24.4554 25.7151 24.1996 24.7169C26.2398 23.0697 27.6062 20.6552 27.862 17.8975C28.3986 17.7228 28.9476 17.6042 29.5216 17.6042C29.9896 17.6042 30.4575 17.6666 30.9067 17.7914C30.6634 21.7096 28.6856 25.1536 25.7282 27.3685ZM14.9719 16.9803C14.9719 18.6337 16.3133 19.9751 17.9667 19.9751C19.6201 19.9751 20.9615 18.6337 20.9615 16.9803C20.9615 15.3269 19.6201 13.9855 17.9667 13.9855C16.3133 13.9855 14.9719 15.3269 14.9719 16.9803Z" fill="#FF4F4F"/>
</svg>
