<?xml version="1.0" standalone="no"?><!DOCTYPE svg PUBLIC "-//W3C//DTD SVG 1.1//EN" "http://www.w3.org/Graphics/SVG/1.1/DTD/svg11.dtd"><svg t="1585190581516" class="icon" viewBox="0 0 1024 1024" version="1.1" xmlns="http://www.w3.org/2000/svg" p-id="2308" xmlns:xlink="http://www.w3.org/1999/xlink" width="200" height="200"><defs><style type="text/css"></style></defs><path d="M1000.00000001 247.99999998Q976.992 192 933.984 148.992 849.98400001 64 732.99200002 64q-63.99999999 0-121.50400002 28T512 171.00799999q-42.016-51.00800002-99.488-79.00799999T291.00799998 64Q174.01599999 64 90.016 150.01600001 47.008 193.024 23.99999999 249.02399999-0.99200001 308.03199999 0 371.04q0.992 68.992 28.99200001 130.496t79.00799999 104.512q4.992 4 8.992 8 14.01600001 12 112.99200001 102.016 208 191.008 256.992 235.008 11.008 8.992 24.99199999 8.99199999t24.992-8.99199999q32.992-30.01600001 180.992-164.992 158.01599999-144 196-179.008 52-43.008 80.992-104.99199999t28.99200001-132.00000002q0-63.99999999-24.00000001-122.01599999z" fill="#1296db" p-id="2309"></path></svg>