<svg width="1392" height="396" viewBox="0 0 1392 396" fill="none" xmlns="http://www.w3.org/2000/svg">
<g id="logo-age-polonais">
<path id="L&#226;&#128;&#153;&#195;&#162;ge d&#226;&#128;&#153;or du cin&#195;&#169;ma" fill-rule="evenodd" clip-rule="evenodd" d="M18.7178 35.3824V95.6465H59.4633V112.995H0V35.3824H18.7178ZM89.3661 35.3824L86.6269 64.6014H72.2462L69.507 35.3824H89.3661ZM142.78 13.4681L123.948 26.0232L115.845 16.2074L142.78 0L169.716 16.2074L161.612 26.0232L142.78 13.4681ZM166.292 112.995L161.27 100.897H123.834L118.698 112.995H98.8392L132.052 35.3824H152.938L186.265 112.995H166.292ZM130.34 85.6025H154.764L142.666 56.6118L130.34 85.6025ZM237.625 34.0127C252.576 34.0127 264.674 40.7468 272.435 51.0191L256.229 59.2369C252.348 54.3291 246.299 51.5898 237.397 51.5898C223.815 51.5898 214.342 61.0631 214.342 73.9606C214.342 86.2873 224.043 96.9021 237.625 96.9021C245.957 96.9021 252.576 94.2769 256.685 90.3963V82.8632H233.06V68.482H273.234V97.2445C272.664 98.3858 260.452 114.365 237.739 114.365C212.059 114.365 195.51 95.0759 195.51 74.1889C195.51 52.617 213.2 34.0127 237.625 34.0127ZM287.387 35.3824H346.85V52.7312H306.105V66.0851H340.116V82.2926H306.105V95.6465H346.85V112.995H287.387V35.3824ZM423.433 35.3824C448.999 35.2682 464.407 51.7039 464.407 74.0747C464.407 96.6738 447.63 112.995 423.433 112.995H389.079V35.4965L423.433 35.3824ZM407.797 52.7312V95.6465H423.433C436.445 95.6465 445.461 87.0863 445.461 74.0747C445.461 60.15 436.673 52.7312 423.433 52.7312H407.797ZM494.082 35.3824L491.343 64.6014H476.962L474.223 35.3824H494.082ZM543.159 34.0127C565.187 34.0127 583.22 52.1605 583.22 74.1889C583.22 96.3314 565.187 114.365 543.159 114.365C520.903 114.365 503.098 96.3314 503.098 74.1889C503.098 52.1605 520.903 34.0127 543.159 34.0127ZM543.159 51.4757C530.49 51.4757 520.218 61.6338 520.218 74.1889C520.218 86.858 530.49 97.0162 543.159 97.0162C555.599 97.0162 565.871 86.858 565.871 74.1889C565.871 61.6338 555.599 51.4757 543.159 51.4757ZM633.096 35.3824C648.846 35.3824 660.716 47.595 660.716 64.4872C660.716 75.6726 655.238 85.146 646.906 89.5973L662.884 112.995H639.601L627.96 93.7062H614.264V112.995H595.546V35.3824H633.096ZM630.471 52.7312H614.264V76.3575H630.357C636.748 76.3575 641.884 70.993 641.884 64.4872C641.884 58.0956 636.748 52.7312 630.471 52.7312ZM737.642 35.3824C763.207 35.2682 778.615 51.7039 778.615 74.0747C778.615 96.6738 761.838 112.995 737.642 112.995H703.288V35.4965L737.642 35.3824ZM722.005 52.7312V95.6465H737.642C750.653 95.6465 759.669 87.0863 759.669 74.0747C759.669 60.15 750.881 52.7312 737.642 52.7312H722.005ZM862.731 35.3824V73.1616C862.731 98.8424 846.524 114.365 824.839 114.365C802.811 114.365 787.86 98.8424 787.86 73.1616V35.3824H806.578V73.1616C806.578 88.1135 812.969 97.0162 824.839 97.0162C836.481 97.0162 843.785 88.1135 843.785 73.1616V35.3824H862.731ZM961.913 85.0318L977.777 94.1628C970.815 105.805 957.918 114.365 941.483 114.365C917.173 114.365 899.482 96.5597 899.482 73.6182C899.482 52.0463 917.173 34.0127 941.483 34.0127C958.032 34.0127 971.044 41.774 978.006 53.416L962.141 62.661C958.489 55.5846 951.299 50.905 941.483 50.905C927.901 50.905 918.428 60.8349 918.428 73.6182C918.428 85.9449 927.901 96.7879 941.483 96.7879C951.07 96.7879 958.147 91.88 961.913 85.0318ZM1009.05 35.3824V112.995H990.332V35.3824H1009.05ZM1102.18 35.3824V112.995H1083.35L1044.09 65.5145V112.995H1025.26V35.3824H1044.09L1083.35 82.7491V35.3824H1102.18ZM1127.52 16.3215L1163.59 1.36964L1169.52 16.3215L1133.11 27.6211L1127.52 16.3215ZM1118.5 35.3824H1177.97V52.7312H1137.22V66.0851H1171.23V82.2926H1137.22V95.6465H1177.97V112.995H1118.5V35.3824ZM1288.79 35.3824V112.995H1269.96V73.3899L1251.35 112.995H1230.47L1211.86 73.3899V112.995H1193.15V35.3824H1213.92L1240.97 92.3366L1267.9 35.3824H1288.79ZM1368.91 112.995L1363.89 100.897H1326.45L1321.32 112.995H1301.46L1334.67 35.3824H1355.56L1388.88 112.995H1368.91ZM1332.96 85.6025H1357.38L1345.29 56.6118L1332.96 85.6025Z" fill="white"/>
<g id="Polonais">
<path id="Combined Shape" fill-rule="evenodd" clip-rule="evenodd" d="M149.842 284.988C149.842 250.91 128.156 217.349 83.2369 217.349H2.17529V392.902H44.7714V353.144H82.9787C127.898 353.144 149.842 319.583 149.842 284.988ZM44.7714 256.59H78.3319C95.3703 256.848 106.987 266.142 106.987 284.988C106.987 304.093 95.3703 314.161 78.3319 314.161H44.7714V256.59Z" fill="#E50914"/>
<path id="Combined Shape_2" fill-rule="evenodd" clip-rule="evenodd" d="M352.237 305.126C352.237 255.299 311.448 214.251 261.624 214.251C211.283 214.251 171.01 255.299 171.01 305.126C171.01 355.21 211.283 396 261.624 396C311.448 396 352.237 355.21 352.237 305.126ZM209.734 305.126C209.734 276.727 232.968 253.75 261.624 253.75C289.763 253.75 312.997 276.727 312.997 305.126C312.997 333.782 289.763 356.759 261.624 356.759C232.968 356.759 209.734 333.782 209.734 305.126Z" fill="#E50914"/>
<path id="Path" fill-rule="evenodd" clip-rule="evenodd" d="M422.456 217.349V353.661H514.618V392.902H380.118V217.349H422.456Z" fill="#E50914"/>
<path id="Combined Shape_3" fill-rule="evenodd" clip-rule="evenodd" d="M714.691 305.126C714.691 255.299 673.902 214.251 624.077 214.251C573.737 214.251 533.464 255.299 533.464 305.126C533.464 355.21 573.737 396 624.077 396C673.902 396 714.691 355.21 714.691 305.126ZM572.188 305.126C572.188 276.727 595.422 253.75 624.077 253.75C652.217 253.75 675.451 276.727 675.451 305.126C675.451 333.782 652.217 356.759 624.077 356.759C595.422 356.759 572.188 333.782 572.188 305.126Z" fill="#E50914"/>
<path id="Path_2" fill-rule="evenodd" clip-rule="evenodd" d="M913.989 217.349V392.902H871.393L782.587 285.505V392.902H739.991V217.349H782.587L871.393 324.488V217.349H913.989Z" fill="#E50914"/>
<path id="Combined Shape_4" fill-rule="evenodd" clip-rule="evenodd" d="M1081.79 365.536L1093.15 392.902H1138.33L1062.95 217.349H1015.7L940.579 392.902H985.499L997.116 365.536H1081.79ZM1067.08 330.942H1011.83L1039.71 265.368L1067.08 330.942Z" fill="#E50914"/>
<path id="Path_3" fill-rule="evenodd" clip-rule="evenodd" d="M1209.32 217.349V392.902H1166.98V217.349H1209.32Z" fill="#E50914"/>
<path id="Path_4" fill-rule="evenodd" clip-rule="evenodd" d="M1314.65 214.251C1360.34 214.251 1384.61 245.489 1384.61 272.855H1342.53C1342.53 264.077 1332.2 252.201 1314.13 252.201C1301.48 252.201 1285.99 257.881 1285.99 267.95C1285.99 276.469 1297.61 279.825 1322.39 286.279C1350.02 293.508 1389 302.802 1389 341.527C1389 375.089 1359.57 396 1318.52 396C1263.53 396 1240.56 358.824 1240.56 331.458H1282.64C1282.64 331.458 1285.99 359.34 1320.85 359.34C1339.69 359.34 1346.66 351.337 1346.66 343.85C1346.66 332.749 1331.95 328.877 1315.68 325.004C1289.35 318.808 1243.14 308.998 1243.14 270.015C1243.14 238.002 1274.64 214.251 1314.65 214.251Z" fill="#E50914"/>
</g>
</g>
</svg>
