<svg width="369" height="102" viewBox="0 0 369 102" fill="none" xmlns="http://www.w3.org/2000/svg">
<g id="logo-Netflix">
<path id="Fill 1" fill-rule="evenodd" clip-rule="evenodd" d="M50.5949 0.0580902C45.5356 0.0580902 40.1211 0.0580902 35.061 0.0580902C35.0311 21.1821 35.0012 34.8637 34.9713 55.9877C28.296 35.3736 21.6147 21.7263 14.9163 0.0580902C9.2361 0.0580902 5.68106 0.0580902 0 0.0580902C0 33.0673 0 66.0765 0 99.0857C5.03531 98.3691 10.4268 97.6823 15.4672 97.0246C15.4818 76.3268 15.4963 63.6036 15.5108 42.905C22.4475 63.2782 26.7124 75.2949 33.6285 94.6559C39.0499 94.0366 45.0069 93.2747 50.4343 92.7237C50.4881 61.8355 50.541 30.9464 50.5949 0.0580902Z" fill="#E50914"/>
<path id="Fill 2" fill-rule="evenodd" clip-rule="evenodd" d="M108.618 0.0580902C94.2145 0.0580902 79.9883 0.0580902 65.5845 0.0580902C65.5264 30.5116 65.4692 60.9659 65.4111 91.4194C79.8056 90.1099 94.2171 89.0396 108.639 88.2085C108.646 83.7556 108.655 77.3552 108.663 72.9032C99.2848 73.4797 90.3135 74.0802 80.9689 74.7089C80.9852 66.5215 81.0014 59.7504 81.0168 51.5622C87.8467 51.4443 95.0601 51.5476 102.037 51.4289C102.045 46.953 102.053 40.5295 102.062 36.0544C95.1481 36.1765 87.8467 36.1911 81.0441 36.32C81.0603 28.1318 81.0765 23.6405 81.0928 15.4523C85.3722 15.401 89.5661 15.3942 93.7524 15.3942C94.4878 15.3942 95.2224 15.3942 95.9578 15.395C96.689 15.395 97.4202 15.395 98.1522 15.395C101.644 15.395 105.15 15.3907 108.716 15.36C108.724 10.9071 108.611 4.51011 108.618 0.0580902Z" fill="#E50914"/>
<path id="Fill 3" fill-rule="evenodd" clip-rule="evenodd" d="M166.623 0.126411C150.828 0.126411 134.501 0.127266 118.705 0.12812C118.698 4.55196 118.691 10.9242 118.683 15.3472C119.371 15.3429 120.058 15.3412 120.745 15.3412C122.827 15.3412 124.908 15.3608 126.991 15.3813C129.071 15.4018 131.151 15.4223 133.231 15.4223C133.765 15.4223 134.298 15.4206 134.832 15.4181C134.8 39.97 134.767 62.3941 134.735 86.946C139.806 86.7572 145.231 86.5983 150.302 86.4694C150.325 62.0524 150.348 39.7616 150.37 15.3455C155.727 15.325 161.261 15.3096 166.617 15.2985C166.619 10.9498 166.622 4.47508 166.623 0.126411Z" fill="#E50914"/>
<path id="Fill 4" fill-rule="evenodd" clip-rule="evenodd" d="M219.916 0.0580902C205.512 0.0580902 191.108 0.0580902 176.705 0.0580902C176.701 28.7238 176.697 57.3877 176.692 86.0525C178.362 86.0457 180.052 86.0431 181.748 86.0431C185.203 86.0431 188.685 86.0559 192.088 86.0824C192.084 73.9179 192.08 62.8161 192.077 50.6507C192.925 50.6533 193.782 50.655 194.644 50.655C196.653 50.655 198.695 50.6473 200.745 50.6388C202.795 50.6302 204.853 50.6217 206.894 50.6217C208.997 50.6217 211.08 50.6302 213.117 50.6584C213.114 46.2978 213.11 39.8103 213.106 35.4496C211.182 35.43 209.216 35.4231 207.231 35.4231C205.105 35.4231 202.956 35.4308 200.817 35.4385C198.679 35.4462 196.55 35.4539 194.458 35.4539C193.658 35.4539 192.862 35.453 192.073 35.4505C192.07 27.6295 192.068 23.216 192.066 15.395C193.755 15.3976 195.44 15.3984 197.12 15.3984C198.825 15.3984 200.524 15.3976 202.223 15.3967C203.937 15.3959 205.649 15.395 207.363 15.395C211.537 15.395 215.715 15.3993 219.929 15.4181C219.925 11.0472 219.92 4.42897 219.916 0.0580902Z" fill="#E50914"/>
<path id="Fill 5" fill-rule="evenodd" clip-rule="evenodd" d="M230.001 0.127281C230.039 29.0689 229.9 58.0104 229.937 86.9528C243.752 87.4671 258.27 88.0249 272.068 88.979C272.06 84.527 272.051 78.1248 272.042 73.6728C263.309 73.1586 254.218 72.5427 245.478 72.1797C245.439 47.3937 245.575 24.9132 245.536 0.128135C240.475 0.127281 235.061 0.127281 230.001 0.127281Z" fill="#E50914"/>
<path id="Fill 6" fill-rule="evenodd" clip-rule="evenodd" d="M284.817 0.129845C284.877 30.0597 284.935 59.9896 284.994 89.9203C290.055 90.3115 295.292 90.7309 300.35 91.1811C300.368 60.8515 300.41 30.4808 300.352 0.130699C295.292 0.129845 289.877 0.129845 284.817 0.129845Z" fill="#E50914"/>
<path id="Fill 7" fill-rule="evenodd" clip-rule="evenodd" d="M313.668 0.131538C319.881 15.2652 325.563 30.4415 331.872 46.513C325.316 61.9499 318.642 77.2851 312.092 92.0933C317.518 92.6289 323.131 93.4122 328.551 94.0161C332.44 84.4791 335.978 77.1374 339.871 67.3433C343.757 77.7763 347.29 85.8373 351.166 96.6069C356.578 97.309 363.594 98.3161 368.999 99.0857C362.447 81.5697 355.281 63.3311 348.692 46.777C355.253 31.2308 361.948 16.3901 368.764 0.136664C363.168 0.136664 357.396 0.135809 351.8 0.134955C347.594 10.1811 344.701 16.6361 340.669 26.1988C336.914 16.2492 334.394 9.81033 330.632 0.133247C325.036 0.132393 319.263 0.132393 313.668 0.131538Z" fill="#E50914"/>
</g>
</svg>
