<svg width="68" height="16" viewBox="0 0 68 16" fill="none" xmlns="http://www.w3.org/2000/svg">
<path fill-rule="evenodd" clip-rule="evenodd" d="M8 16C12.4183 16 16 12.4183 16 8C16 3.58172 12.4183 0 8 0C3.58172 0 0 3.58172 0 8C0 12.4183 3.58172 16 8 16Z" fill="#EFEFEF"/>
<path fill-rule="evenodd" clip-rule="evenodd" d="M34 16C38.4183 16 42 12.4183 42 8C42 3.58172 38.4183 0 34 0C29.5817 0 26 3.58172 26 8C26 12.4183 29.5817 16 34 16Z" fill="#FF4F4F"/>
<path fill-rule="evenodd" clip-rule="evenodd" d="M60 16C64.4183 16 68 12.4183 68 8C68 3.58172 64.4183 0 60 0C55.5817 0 52 3.58172 52 8C52 12.4183 55.5817 16 60 16Z" fill="#EFEFEF"/>
</svg>
